<?xml version="1.0" encoding="UTF-8" standalone="no"?>
<!DOCTYPE svg PUBLIC "-//W3C//DTD SVG 1.1//EN"
 "http://www.w3.org/Graphics/SVG/1.1/DTD/svg11.dtd">
<!-- Generated by graphviz version 2.48.0 (20210717.1556)
 -->
<!-- Title: FortranWeaver_join_point_hierarchy_join_point_hierarchy Pages: 1 -->
<svg width="154pt" height="101pt"
 viewBox="0.00 0.00 154.00 101.00" xmlns="http://www.w3.org/2000/svg" xmlns:xlink="http://www.w3.org/1999/xlink">
<g id="graph0" class="graph" transform="scale(1 1) rotate(0) translate(4 97)">
<title>FortranWeaver_join_point_hierarchy_join_point_hierarchy</title>
<polygon fill="white" stroke="transparent" points="-4,4 -4,-97 150,-97 150,4 -4,4"/>
<!-- file -->
<g id="node1" class="node">
<title>file</title>
<polygon fill="#b2dfee" stroke="#b2dfee" points="145,-93 91,-93 91,-74 145,-74 145,-93"/>
<text text-anchor="middle" x="118" y="-81" font-family="Times New Roman,serif" font-size="10.00">file</text>
</g>
<!-- joinpoint -->
<g id="node2" class="node">
<title>joinpoint</title>
<polygon fill="#b2dfee" stroke="#b2dfee" points="54,-56 0,-56 0,-37 54,-37 54,-56"/>
<text text-anchor="middle" x="27" y="-44" font-family="Times New Roman,serif" font-size="10.00">joinpoint</text>
</g>
<!-- file&#45;&gt;joinpoint -->
<g id="edge1" class="edge">
<title>file&#45;&gt;joinpoint</title>
<path fill="none" stroke="black" d="M94.08,-73.97C83.88,-69.73 71.69,-64.66 60.57,-60.04"/>
<polygon fill="black" stroke="black" points="61.73,-56.73 51.15,-56.12 59.04,-63.2 61.73,-56.73"/>
</g>
<!-- program -->
<g id="node3" class="node">
<title>program</title>
<polygon fill="#b2dfee" stroke="#b2dfee" points="145,-56 91,-56 91,-37 145,-37 145,-56"/>
<text text-anchor="middle" x="118" y="-44" font-family="Times New Roman,serif" font-size="10.00">program</text>
</g>
<!-- program&#45;&gt;joinpoint -->
<g id="edge2" class="edge">
<title>program&#45;&gt;joinpoint</title>
<path fill="none" stroke="black" d="M90.78,-46.5C82.45,-46.5 73.09,-46.5 64.18,-46.5"/>
<polygon fill="black" stroke="black" points="64.03,-43 54.03,-46.5 64.03,-50 64.03,-43"/>
</g>
<!-- statement -->
<g id="node4" class="node">
<title>statement</title>
<polygon fill="#b2dfee" stroke="#b2dfee" points="146,-19 90,-19 90,0 146,0 146,-19"/>
<text text-anchor="middle" x="118" y="-7" font-family="Times New Roman,serif" font-size="10.00">statement</text>
</g>
<!-- statement&#45;&gt;joinpoint -->
<g id="edge3" class="edge">
<title>statement&#45;&gt;joinpoint</title>
<path fill="none" stroke="black" d="M94.08,-19.03C83.88,-23.27 71.69,-28.34 60.57,-32.96"/>
<polygon fill="black" stroke="black" points="59.04,-29.8 51.15,-36.88 61.73,-36.27 59.04,-29.8"/>
</g>
</g>
</svg>
